<svg width="65" height="65" viewBox="0 0 65 65" fill="none" xmlns="http://www.w3.org/2000/svg">
<path d="M55.5389 50.0555H12.5389V11.0555C12.5389 10.7805 12.3139 10.5555 12.0389 10.5555H8.53894C8.26394 10.5555 8.03894 10.7805 8.03894 11.0555V54.0555C8.03894 54.3305 8.26394 54.5555 8.53894 54.5555H55.5389C55.8139 54.5555 56.0389 54.3305 56.0389 54.0555V50.5555C56.0389 50.2805 55.8139 50.0555 55.5389 50.0555ZM19.1514 40.4118C19.3452 40.6055 19.6577 40.6055 19.8577 40.4118L28.5014 31.8118L36.4764 39.8368C36.6702 40.0305 36.9889 40.0305 37.1827 39.8368L54.3952 22.6305C54.5889 22.4368 54.5889 22.118 54.3952 21.9243L51.9202 19.4493C51.8262 19.3562 51.6993 19.304 51.5671 19.304C51.4348 19.304 51.3079 19.3562 51.2139 19.4493L36.8389 33.818L28.8764 25.8055C28.7825 25.7125 28.6556 25.6603 28.5233 25.6603C28.3911 25.6603 28.2642 25.7125 28.1702 25.8055L16.6827 37.2243C16.5896 37.3183 16.5374 37.4452 16.5374 37.5774C16.5374 37.7097 16.5896 37.8366 16.6827 37.9305L19.1514 40.4118Z" fill="#D3B62F"/>
</svg>
