<svg width="65" height="65" viewBox="0 0 65 65" fill="none" xmlns="http://www.w3.org/2000/svg">
<path d="M56.1901 5.96724H16.1901C14.7756 5.96724 13.4191 6.52914 12.4189 7.52934C11.4187 8.52953 10.8568 9.88608 10.8568 11.3006V19.3006H5.52344V24.6339H10.8568V29.9672H5.52344V35.3006H10.8568V40.6339H5.52344V45.9672H10.8568V53.9672C10.8568 55.3817 11.4187 56.7383 12.4189 57.7385C13.4191 58.7387 14.7756 59.3006 16.1901 59.3006H56.1901C56.8974 59.3006 57.5756 59.0196 58.0757 58.5195C58.5758 58.0194 58.8568 57.3412 58.8568 56.6339V8.63391C58.8568 7.92666 58.5758 7.24838 58.0757 6.74829C57.5756 6.24819 56.8974 5.96724 56.1901 5.96724ZM34.8568 13.9646C39.2514 13.9646 42.8568 17.5672 42.8568 21.9646C42.849 24.0842 42.0038 26.1148 40.5053 27.6138C39.0067 29.1129 36.9764 29.9588 34.8568 29.9672C30.4648 29.9672 26.8568 26.3592 26.8568 21.9646C26.8568 17.5672 30.4648 13.9646 34.8568 13.9646ZM50.8568 48.6339H18.8568V46.6339C18.8568 40.7166 26.0701 34.6339 34.8568 34.6339C43.6434 34.6339 50.8568 40.7166 50.8568 46.6339V48.6339Z" fill="#CCCCCC"/>
</svg>
