<svg width="25" height="25" viewBox="0 0 25 25" fill="none" xmlns="http://www.w3.org/2000/svg">
<path d="M21.5952 4.97559H3.59521C3.19739 4.97559 2.81586 5.13362 2.53455 5.41493C2.25325 5.69623 2.09521 6.07776 2.09521 6.47559V18.4756C2.09521 18.8734 2.25325 19.2549 2.53455 19.5362C2.81586 19.8176 3.19739 19.9756 3.59521 19.9756H21.5952C21.993 19.9756 22.3746 19.8176 22.6559 19.5362C22.9372 19.2549 23.0952 18.8734 23.0952 18.4756V6.47559C23.0952 6.07776 22.9372 5.69623 22.6559 5.41493C22.3746 5.13362 21.993 4.97559 21.5952 4.97559ZM19.9452 6.47559L12.5952 11.5606L5.24521 6.47559H19.9452ZM3.59521 18.4756V7.15809L12.1677 13.0906C12.2933 13.1777 12.4424 13.2244 12.5952 13.2244C12.748 13.2244 12.8972 13.1777 13.0227 13.0906L21.5952 7.15809V18.4756H3.59521Z" fill="#2E8159"/>
</svg>
