<svg width="65" height="65" viewBox="0 0 65 65" fill="none" xmlns="http://www.w3.org/2000/svg">
<g clip-path="url(#clip0)">
<path d="M52.4093 16.543L47.6493 10.593C46.5958 9.28782 45.1725 8.55553 43.6893 8.55554H21.0093C19.5293 8.55554 18.0993 9.29304 17.0493 10.593L12.2893 16.543H0.489258V48.5055H6.88926C8.64926 48.5055 10.0693 46.7305 10.0793 44.543H10.9893L19.4493 54.093C22.5393 57.2305 26.8293 57.3055 30.0093 54.568C31.2593 55.918 32.6093 56.5555 34.1193 56.5555C35.9393 56.5555 37.6493 55.6305 38.9993 53.5555C41.2093 54.643 43.8193 53.8805 45.3993 51.4555L48.0193 47.418C48.5793 46.5555 48.9293 45.568 49.1093 44.543H54.8993C54.9093 46.7305 56.3393 48.5055 58.0893 48.5055H64.4893V16.543H52.4093ZM5.28926 44.5055C4.40926 44.5055 3.68926 43.6055 3.68926 42.5055C3.68926 41.4055 4.40926 40.5055 5.28926 40.5055C6.16926 40.5055 6.88926 41.4055 6.88926 42.5055C6.88926 43.618 6.16926 44.5055 5.28926 44.5055ZM44.2893 43.643L41.6793 47.668C41.3993 48.093 40.8993 48.168 40.5493 47.818L38.1593 45.393L35.1593 49.9555C34.5593 50.868 33.6593 50.5555 33.3593 50.2555L29.6793 46.318L28.1193 48.718C26.7293 50.8555 24.1993 51.1805 22.5893 49.543L12.8593 38.543H10.0893V22.5305H14.2793L20.4493 14.8305C20.6493 14.7305 20.8193 14.643 21.0193 14.543H26.6893L22.8193 18.9805C19.8793 22.343 19.7093 28.018 22.3793 31.643C23.8593 33.668 28.4993 36.793 32.5293 32.193L33.3493 31.2555L44.1693 42.2305C44.5093 42.5805 44.5593 43.218 44.2893 43.643ZM54.8893 38.543H47.9693C47.7393 38.193 47.4793 37.868 47.1993 37.5805L36.9293 27.1555L38.1793 25.7305C38.8293 24.9805 38.8793 23.718 38.2793 22.9055L37.1893 21.443C36.5893 20.6305 35.5793 20.5805 34.9293 21.318L29.4093 27.643C28.4593 28.7305 26.8393 28.818 25.9493 27.643C25.0193 26.4055 25.0993 24.5055 26.0693 23.4055L32.6293 15.893C33.3693 15.043 34.3293 14.5805 35.3293 14.5805L43.6993 14.5555C43.9093 14.5555 44.1093 14.6555 44.2493 14.843L50.4193 22.543H54.8893V38.543ZM59.6893 44.5055C58.8093 44.5055 58.0893 43.6055 58.0893 42.5055C58.0893 41.4055 58.8093 40.5055 59.6893 40.5055C60.5693 40.5055 61.2893 41.4055 61.2893 42.5055C61.2893 43.618 60.5693 44.5055 59.6893 44.5055Z" fill="#D3B62F"/>
</g>
<defs>
<clipPath id="clip0">
<rect width="64" height="64" fill="white" transform="translate(0.489258 0.555542)"/>
</clipPath>
</defs>
</svg>
