<svg width="17" height="17" viewBox="0 0 17 17" fill="none" xmlns="http://www.w3.org/2000/svg">
<g clip-path="url(#clip0)">
<path fill-rule="evenodd" clip-rule="evenodd" d="M5.88086 0.730279C6.66286 0.694279 6.91219 0.686279 8.90419 0.686279C10.8962 0.686279 11.1455 0.694946 11.9269 0.730279C12.7082 0.765613 13.2415 0.890279 13.7082 1.07095C14.1969 1.25561 14.6402 1.54428 15.0069 1.91761C15.3802 2.28361 15.6682 2.72628 15.8522 3.21561C16.0335 3.68228 16.1575 4.21561 16.1935 4.99561C16.2295 5.77895 16.2375 6.02828 16.2375 8.01961C16.2375 10.0116 16.2289 10.2609 16.1935 11.0429C16.1582 11.8229 16.0335 12.3563 15.8522 12.8229C15.6682 13.3123 15.3797 13.7557 15.0069 14.1223C14.6402 14.4956 14.1969 14.7836 13.7082 14.9676C13.2415 15.1489 12.7082 15.2729 11.9282 15.3089C11.1455 15.3449 10.8962 15.3529 8.90419 15.3529C6.91219 15.3529 6.66286 15.3443 5.88086 15.3089C5.10086 15.2736 4.56753 15.1489 4.10086 14.9676C3.61148 14.7836 3.16808 14.4951 2.80153 14.1223C2.42845 13.7561 2.13974 13.3129 1.95553 12.8236C1.77486 12.3569 1.65086 11.8236 1.61486 11.0436C1.57886 10.2603 1.57086 10.0109 1.57086 8.01961C1.57086 6.02761 1.57953 5.77828 1.61486 4.99695C1.6502 4.21561 1.77486 3.68228 1.95553 3.21561C2.14001 2.72633 2.42894 2.28315 2.80219 1.91695C3.16822 1.54395 3.61118 1.25524 4.1002 1.07095C4.56686 0.890279 5.1002 0.766279 5.8802 0.730279H5.88086ZM11.8675 2.05028C11.0942 2.01495 10.8622 2.00761 8.90419 2.00761C6.94619 2.00761 6.71419 2.01495 5.94086 2.05028C5.22553 2.08295 4.83753 2.20228 4.57886 2.30295C4.23686 2.43628 3.9922 2.59428 3.73553 2.85095C3.49223 3.08765 3.30498 3.3758 3.18753 3.69428C3.08686 3.95295 2.96753 4.34095 2.93486 5.05628C2.89953 5.82961 2.8922 6.06161 2.8922 8.01961C2.8922 9.97761 2.89953 10.2096 2.93486 10.9829C2.96753 11.6983 3.08686 12.0863 3.18753 12.3449C3.30486 12.6629 3.4922 12.9516 3.73553 13.1883C3.9722 13.4316 4.26086 13.6189 4.57886 13.7363C4.83753 13.8369 5.22553 13.9563 5.94086 13.9889C6.71419 14.0243 6.94553 14.0316 8.90419 14.0316C10.8629 14.0316 11.0942 14.0243 11.8675 13.9889C12.5829 13.9563 12.9709 13.8369 13.2295 13.7363C13.5715 13.6029 13.8162 13.4449 14.0729 13.1883C14.3162 12.9516 14.5035 12.6629 14.6209 12.3449C14.7215 12.0863 14.8409 11.6983 14.8735 10.9829C14.9089 10.2096 14.9162 9.97761 14.9162 8.01961C14.9162 6.06161 14.9089 5.82961 14.8735 5.05628C14.8409 4.34095 14.7215 3.95295 14.6209 3.69428C14.4875 3.35228 14.3295 3.10761 14.0729 2.85095C13.8361 2.60766 13.548 2.42042 13.2295 2.30295C12.9709 2.20228 12.5829 2.08295 11.8675 2.05028ZM7.96753 10.2803C8.49063 10.498 9.07311 10.5274 9.61548 10.3634C10.1578 10.1994 10.6265 9.85222 10.9413 9.38111C11.2561 8.90999 11.3976 8.34419 11.3416 7.78035C11.2856 7.21651 11.0355 6.68959 10.6342 6.28961C10.3784 6.03393 10.069 5.83815 9.72842 5.71638C9.38783 5.5946 9.02448 5.54985 8.66453 5.58536C8.30457 5.62086 7.95696 5.73573 7.64673 5.9217C7.3365 6.10767 7.07136 6.36011 6.8704 6.66085C6.66944 6.96158 6.53765 7.30314 6.48454 7.66092C6.43142 8.0187 6.4583 8.38381 6.56322 8.72996C6.66815 9.07611 6.84852 9.39469 7.09134 9.66276C7.33417 9.93083 7.63341 10.1417 7.96753 10.2803ZM6.23886 5.35428C6.58888 5.00426 7.00441 4.72661 7.46173 4.53719C7.91905 4.34776 8.4092 4.25026 8.90419 4.25026C9.39919 4.25026 9.88934 4.34776 10.3467 4.53719C10.804 4.72661 11.2195 5.00426 11.5695 5.35428C11.9195 5.7043 12.1972 6.11983 12.3866 6.57714C12.576 7.03446 12.6735 7.52461 12.6735 8.01961C12.6735 8.51461 12.576 9.00476 12.3866 9.46208C12.1972 9.9194 11.9195 10.3349 11.5695 10.6849C10.8626 11.3918 9.90389 11.789 8.90419 11.789C7.9045 11.789 6.94575 11.3918 6.23886 10.6849C5.53197 9.97806 5.13484 9.01931 5.13484 8.01961C5.13484 7.01992 5.53197 6.06117 6.23886 5.35428ZM13.5095 4.81161C13.5963 4.72979 13.6657 4.6314 13.7137 4.52226C13.7618 4.41312 13.7874 4.29546 13.7891 4.17623C13.7909 4.05701 13.7687 3.93864 13.7238 3.82815C13.679 3.71766 13.6125 3.61729 13.5282 3.53297C13.4439 3.44866 13.3435 3.38212 13.233 3.33729C13.1225 3.29246 13.0041 3.27026 12.8849 3.272C12.7657 3.27374 12.648 3.29938 12.5389 3.34741C12.4297 3.39544 12.3313 3.46488 12.2495 3.55161C12.0904 3.7203 12.0033 3.94436 12.0067 4.17623C12.01 4.4081 12.1037 4.62953 12.2676 4.79351C12.4316 4.95748 12.653 5.0511 12.8849 5.05448C13.1168 5.05786 13.3408 4.97074 13.5095 4.81161Z" fill="#F2F2F2"/>
</g>
<defs>
<clipPath id="clip0">
<rect width="16" height="16" fill="white" transform="translate(0.904175 0.0195312)"/>
</clipPath>
</defs>
</svg>
