<svg width="16" height="17" viewBox="0 0 16 17" fill="none" xmlns="http://www.w3.org/2000/svg">
<path d="M3.32152 4.81748C4.12712 4.81748 4.78019 4.16441 4.78019 3.35881C4.78019 2.55321 4.12712 1.90015 3.32152 1.90015C2.51592 1.90015 1.86285 2.55321 1.86285 3.35881C1.86285 4.16441 2.51592 4.81748 3.32152 4.81748Z" fill="#F2F2F2"/>
<path d="M6.1575 5.9229V14.0156H8.67017V10.0136C8.67017 8.95757 8.86883 7.9349 10.1782 7.9349C11.4695 7.9349 11.4855 9.14223 11.4855 10.0802V14.0162H13.9995V9.57823C13.9995 7.39823 13.5302 5.7229 10.9822 5.7229C9.75884 5.7229 8.93884 6.39423 8.6035 7.02957H8.5695V5.9229H6.1575ZM2.06284 5.9229H4.5795V14.0156H2.06284V5.9229Z" fill="#F2F2F2"/>
</svg>
