<svg width="65" height="65" viewBox="0 0 65 65" fill="none" xmlns="http://www.w3.org/2000/svg">
<path d="M56.0256 19.0411C55.9813 18.593 55.824 18.1634 55.5684 17.7926C55.3128 17.4218 54.9673 17.122 54.5643 16.9211L33.2309 6.25444C32.8605 6.06906 32.4519 5.97253 32.0376 5.97253C31.6233 5.97253 31.2148 6.06906 30.8443 6.25444L9.51094 16.9211C9.109 17.1231 8.76457 17.4233 8.50958 17.7939C8.25459 18.1645 8.09729 18.5935 8.05227 19.0411C8.02294 19.3264 5.4896 47.7531 30.9563 59.0784C31.2966 59.232 31.6656 59.3114 32.0389 59.3114C32.4123 59.3114 32.7813 59.232 33.1216 59.0784C58.5883 47.7531 56.0549 19.3291 56.0256 19.0411ZM32.0389 53.6998V32.6411H14.7323C13.6969 28.85 13.2084 24.9304 13.2816 21.0011L32.0389 11.6224V32.6411H49.2656C47.2416 39.9478 42.6043 48.5851 32.0389 53.6998Z" fill="#D3B62F"/>
</svg>
