<svg width="65" height="65" viewBox="0 0 65 65" fill="none" xmlns="http://www.w3.org/2000/svg">
<path d="M30.8264 8.64111V13.8291L27.2004 10.2651L24.4524 13.0151L28.0104 16.6411H22.8264V20.6411H28.0144L24.4524 24.2671L27.2004 27.0151L30.8264 23.4571V28.6411H34.8264V23.4531L38.4524 27.0151L41.2024 24.2671L37.6364 20.6411H42.8264V16.6411H37.6384L41.2024 13.0151L38.4524 10.2651L34.8264 13.8311V8.64111H30.8264ZM32.8264 14.6411C35.0304 14.6411 36.8264 16.4371 36.8264 18.6411C36.8264 20.8451 35.0304 22.6411 32.8264 22.6411C30.6224 22.6411 28.8264 20.8451 28.8264 18.6411C28.8264 16.4371 30.6224 14.6411 32.8264 14.6411ZM13.2644 32.6411L8.82635 50.3911V56.6411H56.8264V50.3911L52.3884 32.6411H13.2644ZM16.3884 36.6411H49.2664L52.8264 50.8911V52.6411H12.8264V50.8911L16.3884 36.6411ZM18.8264 38.6411L18.0144 42.2671H22.2024L22.8264 38.6411H18.8264ZM26.8264 38.6411L26.4504 42.2671H30.6384L30.8264 38.6411H26.8264ZM34.8264 38.6411L35.0144 42.2671H39.2004L38.8264 38.6411H34.8264ZM42.8264 38.6411L43.4524 42.2671H47.6384L46.8264 38.6411H42.8264ZM17.2004 46.2671L16.4544 50.6411H21.0144L21.6404 46.2651L17.2004 46.2671ZM26.2004 46.2671L25.8264 50.6411H30.4524L30.6384 46.2651L26.2004 46.2671ZM35.0144 46.2671L35.2004 50.6411H39.8264L39.4504 46.2651L35.0144 46.2671ZM44.0144 46.2671L44.6384 50.6411H49.2024L48.4524 46.2651L44.0144 46.2671Z" fill="#D3B62F"/>
</svg>
