<svg width="65" height="64" viewBox="0 0 65 64" fill="none" xmlns="http://www.w3.org/2000/svg">
<path d="M32.2641 3.55554C26.6383 3.55554 21.1389 5.22378 16.4612 8.34929C11.7835 11.4748 8.13775 15.9172 5.98486 21.1148C3.83197 26.3123 3.26867 32.0315 4.36621 37.5492C5.46374 43.0669 8.17281 48.1352 12.1508 52.1132C16.1289 56.0913 21.1972 58.8003 26.7149 59.8979C32.2325 60.9954 37.9518 60.4321 43.1493 58.2792C48.3469 56.1263 52.7893 52.4805 55.9148 47.8029C59.0403 43.1252 60.7085 37.6258 60.7085 32C60.7085 24.456 57.7117 17.2211 52.3774 11.8867C47.043 6.55236 39.808 3.55554 32.2641 3.55554ZM32.2641 56.8889C27.3415 56.8889 22.5295 55.4292 18.4366 52.6943C14.3436 49.9595 11.1535 46.0724 9.26976 41.5246C7.38598 36.9767 6.8931 31.9724 7.85344 27.1444C8.81379 22.3164 11.1842 17.8817 14.665 14.4009C18.1458 10.9201 22.5805 8.54967 27.4085 7.58933C32.2365 6.62899 37.2408 7.12187 41.7887 9.00565C46.3365 10.8894 50.2236 14.0795 52.9585 18.1725C55.6933 22.2654 57.153 27.0774 57.153 32C57.153 38.6009 54.5308 44.9315 49.8632 49.5991C45.1956 54.2667 38.865 56.8889 32.2641 56.8889Z" fill="#D3B62F"/>
<path d="M50.0419 21.5111C49.7088 21.18 49.2582 20.9941 48.7885 20.9941C48.3189 20.9941 47.8683 21.18 47.5352 21.5111L27.8019 41.1556L17.1352 30.4889C16.8099 30.1376 16.3583 29.93 15.8799 29.9116C15.4015 29.8933 14.9354 30.0658 14.5841 30.3911C14.2328 30.7164 14.0252 31.168 14.0068 31.6464C13.9885 32.1248 14.161 32.591 14.4863 32.9422L27.8019 46.2222L50.0419 24.0356C50.2085 23.8703 50.3408 23.6737 50.431 23.457C50.5213 23.2404 50.5677 23.008 50.5677 22.7733C50.5677 22.5386 50.5213 22.3063 50.431 22.0896C50.3408 21.873 50.2085 21.6764 50.0419 21.5111Z" fill="#D3B62F"/>
</svg>
