<svg width="65" height="65" viewBox="0 0 65 65" fill="none" xmlns="http://www.w3.org/2000/svg">
<path d="M56.4892 33.5592C56.4892 18.9192 45.1292 8.97253 32.4892 8.97253C19.9826 8.97253 8.48924 18.7059 8.48924 33.7192C6.88924 34.6259 5.82257 36.3325 5.82257 38.3059V43.6392C5.82257 46.5725 8.22257 48.9725 11.1559 48.9725C12.6226 48.9725 13.8226 47.7725 13.8226 46.3059V33.4792C13.8226 23.2659 21.6892 14.3325 31.9026 14.0392C34.4022 13.9632 36.8916 14.3897 39.2233 15.2934C41.5551 16.1972 43.6817 17.5598 45.4771 19.3006C47.2726 21.0413 48.7003 23.1247 49.6758 25.4274C50.6513 27.7301 51.1546 30.2051 51.1559 32.7059V51.6392H32.4892C31.0226 51.6392 29.8226 52.8392 29.8226 54.3059C29.8226 55.7725 31.0226 56.9725 32.4892 56.9725H51.1559C54.0892 56.9725 56.4892 54.5725 56.4892 51.6392V48.3859C58.0626 47.5592 59.1559 45.9325 59.1559 44.0125V37.8792C59.1559 36.0125 58.0626 34.3859 56.4892 33.5592Z" fill="#D3B62F"/>
<path d="M24.4892 38.3059C25.962 38.3059 27.1559 37.112 27.1559 35.6392C27.1559 34.1664 25.962 32.9725 24.4892 32.9725C23.0165 32.9725 21.8226 34.1664 21.8226 35.6392C21.8226 37.112 23.0165 38.3059 24.4892 38.3059Z" fill="#D3B62F"/>
<path d="M40.4892 38.3059C41.962 38.3059 43.1559 37.112 43.1559 35.6392C43.1559 34.1664 41.962 32.9725 40.4892 32.9725C39.0165 32.9725 37.8226 34.1664 37.8226 35.6392C37.8226 37.112 39.0165 38.3059 40.4892 38.3059Z" fill="#D3B62F"/>
<path d="M48.4893 30.3859C47.8534 26.6369 45.9117 23.2338 43.0078 20.7789C40.1039 18.324 36.4251 16.9757 32.6226 16.9725C24.5426 16.9725 15.8493 23.6659 16.5426 34.1725C19.8309 32.8269 22.7352 30.6885 24.9965 27.948C27.2578 25.2074 28.8059 21.9499 29.5026 18.4659C32.9959 25.4792 40.1693 30.3059 48.4893 30.3859Z" fill="#D3B62F"/>
</svg>
