<svg width="25" height="24" viewBox="0 0 25 24" fill="none" xmlns="http://www.w3.org/2000/svg">
<g clip-path="url(#clip0)">
<path d="M5.69063 1.9922C5.60208 1.87829 5.49031 1.78453 5.36273 1.71714C5.23516 1.64974 5.09471 1.61027 4.95071 1.60133C4.80671 1.59239 4.66245 1.6142 4.52752 1.6653C4.3926 1.71639 4.27009 1.79561 4.16813 1.8977L2.61713 3.4502C1.89263 4.1762 1.62563 5.2037 1.94213 6.1052C3.25574 9.83658 5.39257 13.2243 8.19413 16.0172C10.987 18.8187 14.3748 20.9555 18.1061 22.2692C19.0076 22.5857 20.0351 22.3187 20.7611 21.5942L22.3121 20.0432C22.4142 19.9412 22.4934 19.8187 22.5445 19.6838C22.5956 19.5489 22.6174 19.4046 22.6085 19.2606C22.5996 19.1166 22.5601 18.9762 22.4927 18.8486C22.4253 18.721 22.3315 18.6092 22.2176 18.5207L18.7571 15.8297C18.6354 15.7353 18.4939 15.6698 18.3432 15.6381C18.1925 15.6064 18.0365 15.6093 17.8871 15.6467L14.6021 16.4672C14.1636 16.5768 13.7043 16.571 13.2687 16.4503C12.8331 16.3297 12.4362 16.0983 12.1166 15.7787L8.43263 12.0932C8.11278 11.7738 7.88112 11.3769 7.7602 10.9413C7.63928 10.5058 7.63323 10.0463 7.74263 9.6077L8.56463 6.3227C8.60199 6.17329 8.60493 6.01735 8.57323 5.86664C8.54153 5.71593 8.47602 5.57439 8.38163 5.4527L5.69063 1.9922ZM3.03563 0.766698C3.29812 0.504123 3.61347 0.300394 3.96074 0.16904C4.30801 0.0376865 4.67924 -0.0182865 5.0498 0.00483791C5.42036 0.0279623 5.78176 0.129655 6.11 0.303163C6.43824 0.476672 6.72582 0.718026 6.95363 1.0112L9.64463 4.4702C10.1381 5.1047 10.3121 5.9312 10.1171 6.7112L9.29663 9.9962C9.25421 10.1663 9.2565 10.3446 9.30328 10.5136C9.35007 10.6826 9.43975 10.8366 9.56363 10.9607L13.2491 14.6462C13.3734 14.7703 13.5277 14.8602 13.697 14.907C13.8662 14.9537 14.0448 14.9559 14.2151 14.9132L17.4986 14.0927C17.8836 13.9965 18.2853 13.989 18.6735 14.0708C19.0618 14.1527 19.4263 14.3217 19.7396 14.5652L23.1986 17.2562C24.4421 18.2237 24.5561 20.0612 23.4431 21.1727L21.8921 22.7237C20.7821 23.8337 19.1231 24.3212 17.5766 23.7767C13.6184 22.384 10.0245 20.118 7.06163 17.1467C4.09056 14.1842 1.82454 10.5909 0.43163 6.6332C-0.11137 5.0882 0.37613 3.4277 1.48613 2.3177L3.03713 0.766698H3.03563Z" fill="#2E8159"/>
</g>
<defs>
<clipPath id="clip0">
<rect width="24" height="24" fill="white" transform="translate(0.209412)"/>
</clipPath>
</defs>
</svg>
