<svg width="17" height="17" viewBox="0 0 17 17" fill="none" xmlns="http://www.w3.org/2000/svg">
<g clip-path="url(#clip0)">
<path d="M16.5708 3.32638C16.0141 3.57304 15.4161 3.73971 14.7875 3.81504C15.4361 3.42691 15.9214 2.81602 16.1528 2.09638C15.5434 2.45837 14.8764 2.71317 14.1808 2.84971C13.7131 2.35029 13.0935 2.01926 12.4184 1.90803C11.7432 1.79679 11.0502 1.91157 10.447 2.23455C9.84372 2.55752 9.36399 3.07062 9.08224 3.69418C8.80049 4.31774 8.7325 5.01688 8.8888 5.68304C7.65393 5.62104 6.44589 5.30008 5.34309 4.74098C4.24029 4.18189 3.26737 3.39715 2.48747 2.43771C2.2208 2.89771 2.06747 3.43104 2.06747 3.99904C2.06717 4.51037 2.19309 5.01387 2.43406 5.46487C2.67502 5.91586 3.02358 6.3004 3.44881 6.58438C2.95566 6.56869 2.47339 6.43543 2.04214 6.19571V6.23571C2.04209 6.95287 2.29016 7.64796 2.74426 8.20304C3.19836 8.75812 3.83052 9.139 4.53347 9.28104C4.07599 9.40485 3.59636 9.42309 3.13081 9.33438C3.32914 9.95145 3.71547 10.4911 4.23572 10.8777C4.75596 11.2643 5.38408 11.4785 6.03214 11.4904C4.93203 12.354 3.5734 12.8224 2.17481 12.8204C1.92706 12.8204 1.67952 12.806 1.43347 12.777C2.85312 13.6898 4.5057 14.1743 6.19347 14.1724C11.9068 14.1724 15.0301 9.44038 15.0301 5.33638C15.0301 5.20304 15.0268 5.06838 15.0208 4.93504C15.6283 4.49569 16.1527 3.95164 16.5695 3.32838L16.5708 3.32638Z" fill="#F2F2F2"/>
</g>
<defs>
<clipPath id="clip0">
<rect width="16" height="16" fill="white" transform="translate(0.808838 0.0351562)"/>
</clipPath>
</defs>
</svg>
